<svg xmlns="http://www.w3.org/2000/svg"
 width="48" height="48" viewBox="0 0 48 48" fill="none">

<defs>
  <linearGradient id="navy" x1="0" y1="0" x2="1" y2="1">
    <stop offset="0" stop-color="#314B69"/>
    <stop offset="0.50" stop-color="#19304B"/>
    <stop offset="1" stop-color="#0B1D31"/>
  </linearGradient>
  <linearGradient id="blue" x1="0" y1="0" x2="1" y2="1">
    <stop offset="0" stop-color="#65C6FF"/>
    <stop offset="0.48" stop-color="#1886E6"/>
    <stop offset="1" stop-color="#0754A2"/>
  </linearGradient>
  <linearGradient id="silver" x1="0" y1="0" x2="1" y2="1">
    <stop offset="0" stop-color="#FFFFFF"/>
    <stop offset="0.45" stop-color="#DDE7F2"/>
    <stop offset="1" stop-color="#8FA2B8"/>
  </linearGradient>
  <linearGradient id="paper" x1="0" y1="0" x2="1" y2="1">
    <stop offset="0" stop-color="#FFFFFF"/>
    <stop offset="0.75" stop-color="#EDF3F9"/>
    <stop offset="1" stop-color="#C8D5E3"/>
  </linearGradient>
  <filter id="shadow" x="-40%" y="-40%" width="180%" height="180%">
    <feDropShadow dx="0" dy="2.2" stdDeviation="2.4"
                  flood-color="#05111F" flood-opacity="0.33"/>
  </filter>
</defs>


<g filter="url(#shadow)" stroke-linecap="round" stroke-linejoin="round">
  <path d="M9.5 5.5h19l8 8v26A3.5 3.5 0 0 1 33 43H9.5A3.5 3.5 0 0 1 6 39.5V9a3.5 3.5 0 0 1 3.5-3.5Z"
        fill="url(#paper)" stroke="#142B43" stroke-width="1.8"/>
  <path d="M28.5 5.5v7.2a2.3 2.3 0 0 0 2.3 2.3H38"
        fill="url(#silver)" stroke="#142B43" stroke-width="1.6"/>
  <path d="M12 19h12M12 24h14M12 29h10"
        stroke="#8292A5" stroke-width="2.1"/>
  <path d="M25.5 31h8v-4.5L43 34l-9.5 7.5V37h-8Z"
        fill="url(#blue)" stroke="#073D78" stroke-width="1.8"/>
  <path d="M28 33.1h8.2" stroke="#B7E9FF" stroke-opacity=".45" stroke-width="1.1"/>
</g>

</svg>
